<?xml version="1.0" encoding="utf-8"?>
<!-- Generator: Adobe Illustrator 18.1.1, SVG Export Plug-In . SVG Version: 6.00 Build 0)  -->
<!DOCTYPE svg PUBLIC "-//W3C//DTD SVG 1.1//EN" "http://www.w3.org/Graphics/SVG/1.1/DTD/svg11.dtd">
<svg version="1.1" id="Layer_1" xmlns="http://www.w3.org/2000/svg" xmlns:xlink="http://www.w3.org/1999/xlink" x="0px" y="0px"
	 viewBox="0 0 845.2 232.3" enable-background="new 0 0 845.2 232.3" xml:space="preserve">
<g>
	<path fill="#78B954" d="M231.1,77.6h31.5c15.2,0,27.5,12.4,27.5,27.5c0,15.1-12.3,27.4-27.1,27.4h-12.3v19.9h-19.7V77.6z
		 M250.7,115.7h12.2c6,0,10.8-4.7,10.8-10.7s-4.8-10.8-10.8-10.8h-12.2V115.7z"/>
	<path fill="#78B954" d="M291.7,152.5l34.9-74.8h8.9l35.2,74.8h-19.7l-4.6-9.8h-30.6l-4.5,9.8H291.7z M323.6,126.1h15.3l-7.6-16.5
		L323.6,126.1z"/>
	<polygon fill="#78B954" points="374.2,77.5 433.1,77.5 433.1,97.1 413.3,97.1 413.3,152.5 393.6,152.5 393.6,97.1 374.2,97.1 	"/>
	<path fill="#78B954" d="M436.2,152.5l34.9-74.8h8.9l35.2,74.8h-19.7l-4.6-9.8h-30.6l-4.5,9.8H436.2z M468.1,126.1h15.3l-7.6-16.5
		L468.1,126.1z"/>
	<path fill="#78B954" d="M568.9,102.4c-3.1-3.1-7.5-4.9-12.6-4.9c-10.2,0-17.6,7.4-17.6,17.6c0,10.2,7.4,17.6,17.6,17.6
		c5.1,0,9.5-1.8,12.6-5l14,13.8c-6.8,6.8-16.2,11.1-26.5,11.1c-20.7,0-37.4-16.8-37.4-37.4c0-20.7,16.8-37.4,37.4-37.4
		c10.3,0,19.6,4.1,26.3,10.9L568.9,102.4z"/>
	<path fill="#78B954" d="M632.2,77.6c20.7,0,37.4,16.9,37.4,37.5c0,20.7-16.8,37.3-37.4,37.3c-20.7,0-37.3-16.7-37.3-37.3
		C594.9,94.5,611.5,77.6,632.2,77.6 M632.2,97.2c-9.8,0-17.8,8-17.8,17.9c0,9.8,8,17.9,17.8,17.9c9.9,0,17.9-8.1,17.9-17.9
		C650.1,105.2,642.1,97.2,632.2,97.2"/>
	<polygon fill="#78B954" points="738.3,152.5 702.9,117.1 702.9,152.5 683.3,152.5 683.3,77.6 691.3,77.6 726.7,113 726.7,77.6 
		746.3,77.6 746.3,152.5 	"/>
	<polygon fill="#78B954" points="761.4,77.6 808.3,77.6 808.3,93.8 781.1,93.8 781.1,106 805.1,106 805.1,122.6 781.1,122.6 
		781.1,152.5 761.4,152.5 	"/>
	<path fill="#F3C02F" d="M114.9,134.7C115.1,134.7,115.2,134.7,114.9,134.7"/>
	<path fill="#F3C02F" d="M114.7,110.1C114.7,110.1,114.7,110.1,114.7,110.1c0,0.1,0,0.1,0,0.1L114.7,110.1z"/>
	<path fill="#F3C02F" d="M120.7,108.3C120.7,108.3,120.7,108.3,120.7,108.3C120.7,108.3,120.7,108.3,120.7,108.3"/>
	<path fill="#F3C02F" d="M89.6,107.4c-0.1,0,0.1,0.2,0.4,0.5C89.9,107.7,89.7,107.5,89.6,107.4"/>
	<path fill="#F3C02F" d="M130.6,124.9c0,0,0.1,0,0.1,0.1c0.3,0,0.5,0.1,0.8,0.1L130.6,124.9z"/>
	<path fill="#F3C02F" d="M132.7,125.6c-1-0.1-1.8-0.5-2-0.6c-1.8-0.3-1.9-0.1-1.2,0.3C131.5,125.7,131.2,125.3,132.7,125.6"/>
	<path fill="#F3C02F" d="M135.3,107.4l0.5,0.6C135.6,107.8,135.4,107.6,135.3,107.4"/>
	<path fill="#EFB54B" d="M165.3,170c0.1,0.2,0.1,0.3,0.2,0.5C165.6,170.5,165.5,170.3,165.3,170"/>
	<path fill="#F3C02F" d="M131.5,107.6l2.2,2.2C132.8,108.9,132.1,108.2,131.5,107.6"/>
	<path fill="#F3C02F" d="M114.7,110.2C114.7,110.3,114.7,110.3,114.7,110.2C114.7,110.3,114.7,110.3,114.7,110.2"/>
	<path fill="#F3C02F" d="M121,109.8C121,109.8,121,109.8,121,109.8C121,109.8,121,109.8,121,109.8L121,109.8z"/>
	<path fill="#F3C02F" d="M88.8,134.1c0.4,0.1,0.8,0.2,1.2,0.2l-2.2-0.7C88,133.8,88.3,133.9,88.8,134.1"/>
	<path fill="#F3C02F" d="M120.4,113.4L120.4,113.4c0.1,0.1,0.3,0.4,0.4,0.7l0,0C120.9,114.1,120.5,113.4,120.4,113.4"/>
	<path fill="#F3C02F" d="M45.5,87.9c0,0,2.2-0.1,4.3-0.1c1.1,0,2.2,0,3,0c0.8,0,1.4,0,1.4,0c-0.4,3-1.1,5.2-2,7.2
		c-0.4,0.9-0.9,1.8-1.4,2.6c-0.5,0.8-0.9,1.6-1.4,2.4c-0.9,1.5-1.6,3-1.8,4.7c-0.2,1.7,0.1,3.4,1.2,5.4l-1.6-0.8
		c-1,0.3,2.7,1.6,3.9,3.4c0.3,0.5,0.4,0.9,0.2,1.4c-0.2,0.5-0.6,1-1.4,1.5c-1.6,1-4.8,2-10.5,2.8l-0.8-0.2c0.1,0.3,1.6,0.6-0.5,0.6
		c0,0,1.2-0.1,2.5-0.1c1.2,0,2.5-0.1,2.5-0.1c0.9,0.6,2.2,1.2,3.4,1.8c1.1,0.6,2.1,1.2,2.3,1.7c-0.9,0-2.5-0.3-3.7-0.5
		c0,0.1,0.9,2.2,0.9,2.2l-5.1-0.6c1.3,0.6,4.5,1.3,6.7,2c2.2,0.6,3.3,1.3,0.2,1.1c7.3,1.3,4.2,1.7,7.9,2.4c-0.8-0.1-2.3-0.4-3.5-0.6
		c0.7,0.9,2.4,2.3,5.9,3.8c0,0,1,0.2,2.6,0.4c1.6,0.3,3.8,0.5,6.3,0.8c2.5,0.3,5.2,0.4,7.8,0.6c2.6,0.1,5.1,0.3,7.1,0.4
		c-2.3,1,0.8,0.6,3.3,0.9l-1.8-0.5c2-0.5,6.5,0.5,7.9,0.3c-0.4-0.1-0.8-0.2-1.3-0.3l0.6,0.2c-0.8-0.1-1.4-0.3-1.8-0.4
		c-1-0.2-1.7-0.4-1.4-0.6l0.5,0.2c-0.6-0.6,0.3-1.1,0.7-1.4l3.8,0.8c-3.6-1.2-0.5-1.8,3.5-2.4c4-0.6,8.9-1,9.1-1.4
		c5,0-0.7-2.5,1.9-3.1c1.6-1.6,5.8,0.3,9.3,0.2c2.6-0.5-4.5-0.8-4.6-1.3l2.8,0c1.4,0,2.8,0,2.8,0c0.3,0.8,2.7,1,4.2,1.2
		c0.4-0.4,2.5-0.5,3.5-0.7c1-0.2,0.9-0.5-2.8-1.8c1.9,0,3.6,0.4,4.9,0.6c1.3,0.3,2.1,0.5,2.4,0.4c-1.4-0.4-2.7-0.6-4.2-1.1
		c3.4,0.8-0.7-0.4-1.5-0.5c-1.5-0.8,2.1-0.4,5,0.3c2.9,0.7,5,1.5,1.1-0.3l1.4,0.7c-5.7-2.8-11.4-5.3-14.4-7.2l1.3,0.5
		c0.7,0.3,1.3,0.5,1.3,0.5s-0.6-0.4-1.1-0.8c-0.6-0.4-1.1-0.8-1.1-0.8c1.9,0.7,3.4,1.7,4.1,2c-1.2-0.9-0.9-1.2-0.2-1
		c0.7,0.1,1.7,0.5,2.1,0.6c0,0-3.6-2.5-7.3-4.8c-3.7-2.3-7.5-4.4-7.5-4.4c2,0.7,4.8,1.9,6.5,2.7c1.7,0.8,2.3,1,0.2-0.8
		c0,0,1.2,0.9,2.3,1.8c1.2,0.9,2.3,1.8,2.3,1.8c2.2,1.7,3,2.5,3.1,2.6c0.1,0-0.5-0.5-1.3-1.3c-1.6-1.5-3.7-3.9-2.6-2.6
		c0,0,0.2,0.3,0.6,0.8c0.2,0.2,0.4,0.5,0.6,0.8c0.3,0.2,0.6,0.5,0.9,0.7c0.6,0.5,1.3,1,1.7,1.4c0.2,0.2,0.4,0.3,0.6,0.5
		c0.1,0.1,0.1,0.1,0.2,0.1c0,0,0,0,0,0c0,0,0,0.1-0.1,0.2c-0.1,0.1-0.2,0.2-0.4,0.3c-0.1,0-0.1,0.1-0.2,0.1c0,0,0,0,0,0
		c0,0,0.1-0.1,0.1-0.1c0.1,0.2,0.2,0.4,0.3,0.5c-0.1,0-0.2,0-0.1-0.1c0.1-0.1,0.1-0.3,0.2-0.4c0.1-0.2,0.2-0.5,0.3-0.7l0.1-0.3l0,0
		l0,0l0,0l0,0v0c0.8,0.8-7-6.7-3.7-3.5v0l0,0l0.1,0.1c0.1,0.1,0.1,0.2,0.2,0.3l0,0c0,0,0,0,0-0.1l0.1,0.1c0,0.1,0.2,0.4,0.4,0.7
		c0.2,0.4,0.4,0.7,0.3,0.6l0-0.1c0,0-0.1-0.4-0.1-0.4c0,0.1,0,0.2,0.1,0.3c0,0.1,0,0.1,0,0.1c0,0,0-0.1-0.1-0.2
		c-0.1-0.1-0.1-0.2-0.2-0.4l0,0c0.1,0.2,0.2,0.3,0.2,0.5c0,0.1,0.1,0.1,0.1,0.1c0,0,0-0.1,0,0l0-0.1c-0.1-0.3-0.2-0.8-0.3-1.3
		c0-0.5-0.1-1.1,0-2.5l0,0.2c0-0.6,0.1-1.1,0.2-1.2c0-0.4,0.2-0.8,0.3-1.1c0.1-0.3,0.2-0.7,0.3-0.8c0-0.1,0.1-0.2,0.2-0.3
		c0,0,0-0.1,0-0.1l-0.1-0.1c0-0.1-0.1-0.1-0.1-0.2c-0.1-0.1-0.1-0.3-0.2-0.4l0-0.1c0-0.1,0.1,0,0.1,0l0.3,0.2l0.3,0.2
		c0.1,0.1,0.2,0.1,0.4,0.2l0.2,0.1l0,0l0,0l0,0l0,0c-1.5-0.6-0.4-0.2-0.7-0.3v0l0,0c0,0,0,0-0.1,0.1l-0.2,0.2
		c-0.1,0.1-0.2,0.2-0.3,0.3c-0.1,0.1-0.2,0.2-0.4,0.3l-0.1,0.1h0c-0.8,0.5,0,0-1,0.6c-0.4,0.2-0.4,0.2-1,0.5c0,0-0.6,0.2-0.6,0.2
		c-0.5,0.2-0.8,0.3-1.2,0.4c-0.3,0.1-0.8,0.2-1.3,0.3c-0.5,0.1-0.6,0.1-0.4,0c-0.4,0-0.2,0-0.5,0c0,0,0,0,0,0c-0.1,0-0.1,0-0.1,0
		c0,0,0,0,0,0c0,0,0,0,0-0.1c0-0.1,0.1-0.3,0.1-0.4l-0.1,0.2l0.1-0.2l0,0c0,0,0,0.1,0,0.1l0,0.2c0,0.3,0.1,0.5,0.1,0.8l0,0.1l0,0v0
		v0l-3.4-1.1h0l0,0l-0.2,0c-0.1,0-0.2,0-0.3-0.1c-0.2,0-0.5-0.1-0.7-0.1l0,0c0,0-0.3-0.1-0.6-0.1c-0.3-0.1-0.6-0.2-0.6-0.2l-0.1,0
		c0,0-0.5-0.1-1-0.3c-0.6-0.2-1.2-0.3-1.2-0.3l0.3,0.1c-0.3-0.1-0.9-0.3-1.6-0.5c-0.4-0.1-0.8-0.3-1.1-0.4c-0.4-0.2-0.8-0.3-1.1-0.4
		l0,0c-0.5-0.2-1-0.4-1.4-0.6c-0.5-0.2-1-0.4-1.5-0.6c-0.5-0.2-1.1-0.5-1.6-0.7c-0.6-0.3-1.1-0.5-1.7-0.8c-0.6-0.3-1.2-0.6-1.9-1
		c0.4,0.2,0.8,0.4,1.1,0.6c0.7,0.4,1.3,0.9,1.4,1.1l-3.9-2.3c-3.9-2.2,6,3.6,3.9,2.6l-4.8-2.9c3.1,2,2.7,1.9,1.3,1
		c-1.5-0.9-3.5-2.1-5.1-3.1l6.2,3.9l-1.5-0.5c-2.3-1-7.7-5-10.9-7.2c0,0,1.2,0.9,2.3,1.7c1.1,0.9,2.3,1.8,2.3,1.8l-5.3-3.7
		c6,4.5-1.1-0.6,1.9,2.1c-2-1.4-3.1-2.3-4-2.8c0,0,1.7,1.5,3.4,3c1.7,1.5,3.4,3.1,3.4,3.1s-0.7-0.7-1.5-1.4
		c-0.7-0.7-1.5-1.4-1.5-1.4l7.5,5.7c2.7,2.4,2.3,2.4,1.6,2.1c-0.8-0.4-1.9-1.1-1-0.1l-2-2c1.4,1.9-1.8-0.5-3.6-1.6
		c1.4,1,3.6,2.5,4.3,3.5c0.3,0.5-2.6-2-3.5-2.6c4.8,4,7,6.6,4.4,5c-0.7-0.6-1.3-1.2-1.7-1.6c0.7,0.8,1.9,1.9,0.6,1l-5.2-4.7
		c0,0,1.2,1.2,2.4,2.3c1.2,1.2,2.4,2.3,2.4,2.3c-1.6-1.1,1.9,2.6-1.6-0.6l-0.9-1c0,0-0.6,0.1-1.2,0.1c-0.6,0-1.2,0.1-1.2,0.1l-4-3.9
		c2.7,2.7,2,2.4,1.5,2.2c-0.5-0.2-0.8-0.3,2.6,3.1c-1.9-1.8-1.5-0.9-1.6-0.5c0,0.3-0.5,0.1-4.1-3.9c-0.3,0-0.2,0.5,0.2,1.2
		c0.3,0.4,0.5,0.7,0.8,1.1l0.4,0.6c0.1,0.2,0.3,0.4,0.3,0.7c0.1,0.5,0.2,1,0.2,1.4c0,0.2,0,0.4,0,0.6l0,0.1l0,0
		c-0.3,0.2,0.4-0.3,0.3-0.2l0,0l0,0l0,0c0,0,0,0.1,0,0.1c0,0.1,0,0.1,0,0.1c0,0,0,0,0-0.1l0,0c0,0,0,0,0,0l0.2,0.3l0.4,0.5
		c1.1,1.3,2.2,2.7,3.3,4.2c0.9,1.1,1.8,2.3,2.7,3.5c0.7,0.9,1.3,1.7,2,2.6c0.7,1,1.4,2,2.2,3c0.3,0.5,0.7,1,1,1.5
		c0.3,0.5,0.7,1,1,1.5c0.3,0.4,0.6,0.9,0.9,1.4c0.3,0.4,0.6,0.9,0.9,1.4c2.2,3.5,3.5,6,4.1,7.7c0.2,0.4,0.3,0.8,0.4,1.1
		c0.1,0.3,0.2,0.6,0.3,0.9c0.2,0.5,0.3,1,0.3,1.3l0,0.3l0.2,0.2c0.1,0.1,0.1,0.1,0.2,0.2c0.1,0.1,0.2,0.1,0,0.2l-0.6,0.3l-0.1,0l0,0
		c-0.1-0.1,0.7,0.9,0.4,0.5v0v0v0c0-0.1,0.1-0.9,0.7-2.2c0.4-0.7,1.1-1.7,1.7-2.3c0.6-0.6,1.1-0.9,1-0.8l-0.1,0c0,0,0,0,0,0l0,0.2
		c0,0.1,0,0.3-0.1,0.4c-0.2-0.2-0.4-0.4-0.6-0.6l-0.2-0.2l0,0l0,0h0l4-0.9l0,0l0,0l0.1,0l0.3-0.1c0.9-0.3,2.3-0.6,4.3-1
		c1-0.2,1.7-0.2,1.9-0.3c-0.1,0-0.2,0-0.6,0.1c0.4,0,0.8-0.1,1.2-0.1c0.5-0.1,1-0.1,1.5-0.1c0.6,0,0.9-0.1,1.7-0.1l-0.5,0
		c0.4,0,0.5,0,0.8-0.1c0.6,0,1.4-0.1,2.2-0.1c1,0,2-0.1,3.1-0.1c1.2,0,2.2,0,3,0l-1.6,0c0,0,1.2,0,2.5,0c1.5,0,3,0.1,3,0.1l-1.6-0.1
		c0.8,0,1.6,0.1,2.4,0.1c0.4,0,0.8,0,1.2,0.1l0.7,0l0.2,0c0,0,0,0-0.1,0l-0.1,0c-0.7-0.1-1.2-0.1-1.7-0.2c-0.9-0.2-1.3-0.3-1.5-0.6
		c-0.3-0.4,0.6-0.8,1.6-1.3c2-1,4-1.6-2.5-4.4c7.3,1.8-3.8-1.4,4.3,0.2c5.1,0.7,4.7,0.3,2.6-0.4c-2.1-0.8-5.8-1.9-7-2.6
		c-0.4-0.1-0.9-0.2-1.5-0.4c0,0,0.3-0.2,0.6-0.4c0.3-0.2,0.6-0.4,0.6-0.4c5,1.6,2.9,0.9,0.7,0.1c-2.2-0.8-4.6-1.7-0.4-0.2
		c2.1-0.2,3.1-0.6,3.8-1c0.3-0.2,0.5-0.5,0.5-0.9c0.1-0.3,0.1-0.6,0.1-1c0-0.3-0.1-0.7-0.1-1c0-0.3,0-0.6,0-0.9
		c0-0.1,0.1-0.3,0.1-0.4c0.1-0.1,0.2-0.2,0.3-0.2c0.2-0.1,0.6-0.2,1.1-0.2l-2.4-1.2c0.3-0.1-0.2-0.6-0.2-0.9
		c-0.1-0.3,0.2-0.4,2.1,0.7c1.9,1,0.6,0-1.3-1.4c-1.8-1.4-4.1-3.2-4.2-3.4c-1.8-1.5-0.7-1.1,0.8-0.3c1.4,0.9,3.2,2.1,3,2
		c-0.4-0.6-2.4-2.4-3.8-3.8c-1.4-1.5-2.2-2.6-0.3-1.7c3.5,2.7,2.1,1,1-0.8c-1.1-1.7-2-3.4,1.5,0l-0.6-0.6c2.9,2.1,2.4,1,1.9-0.3
		c-0.5-1.3-0.8-2.6,1.6-0.5c0,0,0.4,0.5,0.8,1.1c0,0-1.1-1.5-2.6-3.7c-1.5-2.3-3.5-5.3-5.3-8.4c-3.7-6.1-6.8-12.5-6.8-12.5
		s-1.2-1.6-3.1-4c-1.9-2.5-4.5-5.8-7.2-9.2c-5.3-6.6-10.7-13.1-10.7-13.1s-5.4-4.7-11.1-9.2C82.8,43,76.8,39,76.8,39
		s-0.2,0.3-0.6,0.7c-0.4,0.5-0.9,1.1-1.5,2c-0.6,0.9-1.2,1.8-2,2.9c-0.7,1.1-1.5,2.2-2.1,3.3c-1.4,2.4-2.7,4.7-3.5,6.5
		c-0.9,1.8-1.4,3-1.4,3s-1.2,0.3-2.9,1c-1.7,0.6-4.1,1.5-6.4,2.5c-2.3,1-4.6,2.1-6.4,3c-1.7,1-2.9,1.7-2.9,1.7s-0.3,0.7-0.9,1.8
		c-0.3,0.6-0.6,1.3-1,2.1c-0.3,0.8-0.7,1.6-1.1,2.6c-0.8,1.9-1.7,4.2-2.4,6.4c-0.4,1.2-0.8,2.3-1.2,3.6c-0.4,1.2-0.7,2.4-1,3.6
		c-0.3,1.2-0.6,2.4-0.9,3.6c-0.3,1.1-0.5,2.3-0.7,3.3c-0.2,1.1-0.4,2.1-0.7,3.1c-0.2,1-0.3,1.9-0.5,2.7c-0.3,1.7-0.5,3.1-0.6,4
		c-0.1,1-0.2,1.5-0.2,1.5s1.7,1,3.4,2c1.7,1,3.4,2,3.4,2c-7.1,1.8-7.3,5.8-6.9,9.6c0.4,3.6,1.3,7.8-3.6,13l6.4,0.5
		c0.1,1.4-0.8,2.2-1.9,2.6c-1.1,0.4-2.4,0.6-2.9,1c0.2,3.8,0.7,8.3,1.9,13.2c0.3,1.2,0.6,2.4,1,3.7l0.6,1.9l0.7,1.9
		c0.4,1.3,1,2.6,1.5,3.9l0.4,1l0.1,0.2c-0.5-1.5,0.8,2,0.6,1.7l0,0l0,0l0,0l0.1,0.1l0.4,0.5l0.1,0.1l0,0.1c0,0,0,0,0.1,0.2l0.7,1.5
		c0.5,1,1,2,1.6,3l0.4,0.7l0.3,0.5l0.6,1c0.4,0.7,0.9,1.3,1.3,2c0.9,1.3,1.9,2.6,2.9,3.8c1,1.2,2,2.5,3.1,3.6
		c4.4,4.7,9.5,9.1,15.7,12.8c6.2,3.7,13.7,6.9,22.2,8.4c2.1,0.4,4.3,0.7,6.5,0.8c1.1,0.1,2.2,0.1,3.3,0.2l1.6,0h0.8h0.4l1.9-0.1
		l0.6,0l0.1,0l0.9-0.1c0.7-0.1,1.4-0.1,2.2-0.2c0.7-0.1,1.4-0.2,2.1-0.3l1-0.1l0.7-0.1c1-0.2,1.9-0.3,2.8-0.5
		c7.4-1.5,13.2-3.9,17.8-5.8c4.6-2,8.2-3.7,11.3-4.8c0.6,0.2,1.1,0.3,1.7,0.4c0.5,0,1.1-0.1,1.6-0.2c0.2-0.1,0.5-0.1,0.7-0.2
		l0.4-0.1l0.1,0c0.7-0.6,0.2-0.2,0.3-0.3h0l0,0h0l0,0l0.1,0c0.3-0.1,0.6-0.1,0.8-0.2c0.4,0,1.5-0.7,2.4-0.8c1-0.2,1.8-0.1,2.9,0.5
		c-0.5-4.9,0.3-8.3,1.7-11c1.4-2.7,3.5-4.6,5.7-6.5l0.4,0.6l0.8-2.8c0.5,0.3,1.1,0.7,1.4,1.1c-1.2-3-0.1-4.4,2-5.4
		c2-1,4.9-1.5,6.9-2.4l0.4,0.6c3.6-4.5,6.9-10.6,9.6-18.4c1.3-3.9,2.5-8.2,3.3-13c0.2-1.2,0.4-2.4,0.6-3.6c0.2-1.2,0.3-2.5,0.4-3.7
		l0.1-1.9l0.1-0.9l0-0.1l0,0c0,0.3,0.4-2.7,0.2-1.4l0,0l0-0.1l0-0.2l-0.1-0.6l0-0.2l0-0.1c0,0,0,0,0-0.2l0.1-1.4
		c0.1-1.8,0.1-4,0-5.2c-0.1-1.4-0.2-2.8-0.3-4.2c-0.3-2.8-0.7-5.5-1.2-8.3c-1.1-5.6-2.7-11.3-5.2-17.2c-2.5-5.9-5.8-12.1-10.3-18.2
		c-1.2-1.5-2.4-3-3.7-4.5c-0.7-0.7-1.3-1.5-2-2.2l-1-1.1l-0.3-0.3l0,0c0.5,0.4-4.3-3.4-2.3-1.8l0,0l0,0l-0.1-0.2
		c-0.2-0.4-0.4-0.8-0.6-1.3c0,0,0,0,0-0.1l-0.2-0.2L161,52l-0.8-0.7l-1.7-1.3c-1.1-0.9-2.3-1.7-3.5-2.6c-0.5-0.5-1.1-1-1.5-1.4
		c-0.3-0.3-0.7-0.7-1.1-1c-0.7-0.7-1.5-1.3-2.3-1.9c-0.8-0.6-1.6-1.2-2.5-1.7c-0.8-0.5-1.7-1-2.5-1.5c-3.5-1.9-7.1-3.1-10.9-4
		c-7.4-1.6-14.7-1.2-21.4,0.2c-6.7,1.3-12.9,3.5-18.9,5.7c-6.1,2.3-12.2,4.6-19.2,6.9c-0.5-0.1-1.1-0.1-1.9,0.1
		c-0.4,0.1-0.8,0.2-1.2,0.4c-0.1,0-0.2,0.1-0.3,0.1L71,49.3l0,0l0,0l0,0c-0.7,0.5,1.4-1.2-1.5,1.2l0,0c-0.1,0-0.2,0-0.3,0
		c-0.4,0-0.7,0-1.1,0.1c-0.1,0-0.2,0-0.3,0.1l-0.1,0c0,0-0.1,0.1-0.2,0.1L67.2,51c-0.7,0.5-1.4,1-2.1,1.6c-0.7,0.6-1.4,1.2-2.2,1.8
		c-0.8,0.7-1.3,1.1-1.8,1.6c-1,1-2.1,2.1-3.1,3.3c-1,1.1-2,2.4-2.9,3.6c-0.9,1.2-1.8,2.5-2.6,3.7c-3.2,5-5.2,10-6.3,13.8
		c-0.6,1.9-0.8,3.5-1,4.8C45.2,86.5,45.3,87.4,45.5,87.9"/>
	<path fill="#F3C02F" d="M45,121.4L45,121.4C42.3,120.8,43.3,121.1,45,121.4"/>
	<path fill="#F3C02F" d="M123.2,117.8L123.2,117.8c-0.1,0,0.7,0.5,1.5,1.1c0.8,0.6,1.6,1.1,1.6,1.1s-0.8-0.6-1.5-1.1
		C123.9,118.4,123.2,117.8,123.2,117.8"/>
	<path fill="#F3C02F" d="M122,127.1c1-0.4,0.3-0.6-0.7-0.8C121.1,126.5,121.2,126.8,122,127.1"/>
	<path fill="#F3C02F" d="M49,127.1c-0.3,0.2,1.3,0.5,3.1,0.8c-0.3-0.3-0.4-0.5-0.4-0.5C51.1,127.4,49.7,127.2,49,127.1"/>
	<path fill="#F3C02F" d="M85.1,134.8l2.1,0.6C86.8,135.1,86,134.9,85.1,134.8"/>
	<path fill="#3B240F" d="M104.3,117.2L104.3,117.2c-1.7,0-3.1-1.4-3.1-3.1v-3.8c0-1.7,1.4-3.1,3.1-3.1c1.7,0,3.1,1.4,3.1,3.1v3.8
		C107.5,115.8,106.1,117.2,104.3,117.2"/>
	<path fill="#3B240F" d="M114.2,117.2L114.2,117.2c-1.7,0-3.1-1.4-3.1-3.1v-3.8c0-1.7,1.4-3.1,3.1-3.1c1.7,0,3.1,1.4,3.1,3.1v3.8
		C117.4,115.8,116,117.2,114.2,117.2"/>
	<path fill="#3B240F" d="M119.4,123.1c3.6,0,5.5,4.5,2.8,6.9c-3.5,3.2-8.1,5.1-13.1,5.1c-5.1,0-9.7-1.9-13.1-5.1
		c-2.7-2.4-0.8-6.9,2.8-6.9H119.4z"/>
</g>
</svg>
