<?xml version="1.0" encoding="utf-8"?>
<!-- Generator: Adobe Illustrator 18.1.1, SVG Export Plug-In . SVG Version: 6.00 Build 0)  -->
<!DOCTYPE svg PUBLIC "-//W3C//DTD SVG 1.1//EN" "http://www.w3.org/Graphics/SVG/1.1/DTD/svg11.dtd">
<svg version="1.1" id="Layer_1" xmlns="http://www.w3.org/2000/svg" xmlns:xlink="http://www.w3.org/1999/xlink" x="0px" y="0px"
	 viewBox="0 0 800 800" enable-background="new 0 0 800 800" xml:space="preserve">
<g>
	<g>
		<g>
			<g>
				<g>
					<path fill="#899D3B" d="M179.1,591.7c10.9,5.1,23.5,7.4,34.3-3.8c-5.8-14-15.6-26.5-27.6-35.4c-9.5-7-22.7-10.5-33.3-3.4
						C155.4,566,165.1,585.2,179.1,591.7z"/>
				</g>
				<g>
					<path fill="#531516" d="M195.5,606.7C195.5,606.7,195.5,606.7,195.5,606.7c-6.5,0-13.4-1.7-21-5.2
						c-18.1-8.4-29.5-31.4-32.7-50.5l-1.1-6.9l5.8-3.9c13-8.7,31.2-7.1,45.7,3.7c13.6,10,24.7,24.2,31.2,39.9l2.7,6.5l-4.9,5.1
						C214,602.9,205.3,606.7,195.5,606.7z M165.3,556.1c3.8,12.1,10.9,22.4,18.4,25.8c6.7,3.1,11.8,4,16.1,2.5
						c-5.1-9-12.1-17.1-20.3-23.2C174.9,557.9,169.9,556,165.3,556.1z"/>
				</g>
			</g>
			<g>
				<g>
					<path fill="#899D3B" d="M235,561.4c-2.1,12-9.7,22.6-21.5,26.6c-9.4-11.7-13.8-27.5-10.2-42.2c2.8-11.7,12.2-20.5,24.3-21.5
						C234.2,535.3,237.2,548.5,235,561.4z"/>
				</g>
				<g>
					<path fill="#531516" d="M209.7,600.6l-4.7-5.9c-11.9-14.8-16.5-34.1-12.3-51.5c4-16.7,17.3-28.3,33.8-29.8l6.7-0.6l3.5,5.8
						c8.3,13.9,11.5,29.7,8.9,44.6c-3,16.8-13.7,29.8-28.7,34.9L209.7,600.6z M221.8,537c-4,2.3-6.9,6.3-8.1,11.2
						c-2,8.3-0.8,17.3,3.3,25.4c3.7-3.4,6.4-8.3,7.4-14.1C225.6,552.1,224.7,544.4,221.8,537z"/>
				</g>
			</g>
			<g>
				<g>
					<path fill="#899D3B" d="M216.1,649.2c12.5,2.1,25.5,0.6,33.9-13.1c-8.6-12.3-21.6-23.6-35.1-27.3c-11.8-3.2-24.4-4.9-34.6,6
						C186.8,630.6,201,646.7,216.1,649.2z"/>
				</g>
				<g>
					<path fill="#531516" d="M224.7,660.8L224.7,660.8c-3.2,0-6.7-0.3-10.3-0.9c-20.1-3.4-36.6-23-44-40.9l-2.6-6.4l4.7-5.1
						c7.3-7.9,16.6-11.9,27.5-11.9c6.7,0,13.1,1.5,17.9,2.8c14.7,4,30.1,15.8,41.1,31.5l4,5.8l-3.7,6
						C251.6,654.2,239.7,660.8,224.7,660.8z M194,618.2c6.4,10.8,15.8,19.1,23.9,20.4c8.1,1.4,14,0.6,18.2-2.7
						c-7.3-8.3-16.1-14.5-24-16.6C206.7,617.8,199,616.3,194,618.2z"/>
				</g>
			</g>
			<g>
				<g>
					<path fill="#899D3B" d="M266.5,603.9c0.2,12.8-5.5,25.2-16.4,32.3c-11.9-9.2-19.5-23.8-18.8-38.9c0.6-12.6,8.4-23.5,20.3-27.9
						C260.7,578.6,266.3,590.8,266.5,603.9z"/>
				</g>
				<g>
					<path fill="#531516" d="M249.5,649.3l-6-4.6c-15.3-11.7-23.9-29.7-23-47.9c0.8-17,11.6-31.7,27.4-37.5l6.5-2.4l4.9,4.9
						c11.4,11.5,17.9,26.4,18,42c0.2,17.2-7.8,32.7-21.4,41.5L249.5,649.3z M249,583.2c-4.2,3.6-6.7,8.7-7,14.6
						c-0.4,8.3,2.7,16.8,8.3,23.7c3.5-4.7,5.5-10.8,5.4-17.4C255.6,596.6,253.3,589.4,249,583.2z"/>
				</g>
			</g>
			<g>
				<g>
					<path fill="#899D3B" d="M265.2,696.8c14.1,0.2,26.8-8.6,31.4-22.1c-11.2-10.2-26.7-18.1-40.8-18.2
						c-12.9-0.1-25.8,1.9-33.7,15.3C232,686,247.8,696.5,265.2,696.8z"/>
				</g>
				<g>
					<path fill="#531516" d="M265.8,707.6L265.8,707.6l-0.7,0c-19.7-0.3-39-11.4-51.7-29.5l-4-5.7l3.5-6
						c10.7-18.3,28.3-20.7,42.4-20.7c16.4,0.1,34.4,7.9,48.7,21l5.2,4.8l-2.3,6.7C300.8,695.8,284.3,707.6,265.8,707.6z
						 M236.1,671.9c8.3,8.7,18.9,13.9,29.4,14.1l0.4,10.8V686c6.8,0,13.1-3.2,17.2-8.4c-8.9-6.3-19-10.2-27.2-10.2h0
						C246.3,667.3,240.3,668.7,236.1,671.9z"/>
				</g>
			</g>
			<g>
				<g>
					<path fill="#899D3B" d="M306.5,637.9c2.8,13.2-0.5,27-9.9,36.8c-13.9-6.2-24.6-19-26.8-34.1c-1.9-13.1,3.9-25.9,14.9-33.3
						C295.9,614.1,303.9,625.1,306.5,637.9z"/>
				</g>
				<g>
					<path fill="#531516" d="M299.2,687.6l-6.9-3.1c-17.7-7.9-30.4-24.1-33.1-42.4c-2.5-17.1,5-33.9,19.5-43.8l5.7-3.9l5.9,3.6
						c13.8,8.4,23.5,22.1,26.7,37.6c3.6,17.1-1.2,34.5-12.7,46.5L299.2,687.6z M285.3,621.3c-4,5-5.8,11.3-4.8,17.8
						c1.2,8.4,6,16.1,13.1,21.4c3-6,3.9-13.2,2.4-20.4C294.5,632.9,290.7,626.3,285.3,621.3z"/>
				</g>
			</g>
			<g>
				<g>
					<path fill="#899D3B" d="M324.6,732.3c14.5-3.4,25.1-15.6,26.9-30.4c-13.5-7.6-29.6-10.7-44.9-8.1
						c-13.5,2.3-26.5,10.5-30.6,24.2C289,729.9,307.3,736.4,324.6,732.3z"/>
				</g>
				<g>
					<path fill="#531516" d="M314,744.3C314,744.3,314,744.3,314,744.3c-15.9,0-32.4-6.6-45.3-18.2l-5.1-4.6l2-6.6
						c5-16.3,20-28.5,39.2-31.7c17.5-3,36.2,0.4,52,9.3l6.3,3.5l-0.9,7.1c-2.3,19.3-16.4,35.2-35.1,39.6
						C322.8,743.8,318.4,744.3,314,744.3z M289.5,715c7.6,5,16.2,7.8,24.5,7.8c0,0,0,0,0,0c2.8,0,5.5-0.3,8.1-0.9
						c7.5-1.8,13.6-7.1,16.7-14c-9.6-3.8-20.4-5-30.4-3.3C301.8,705.6,294.1,708.9,289.5,715z"/>
				</g>
			</g>
			<g>
				<g>
					<path fill="#899D3B" d="M353.6,662c5.5,12.8,5.3,27.9-2.2,40c-15.3-2.8-28.8-13.2-34.1-27.8c-4.7-13-1.2-27.4,8.1-37.5
						C338.2,640.6,348.4,649.8,353.6,662z"/>
				</g>
				<g>
					<path fill="#531516" d="M356.8,713.9l-7.3-1.3c-19.6-3.5-35.8-16.9-42.3-34.8c-6-16.4-2-35,10.3-48.5l4.6-5.1l6.6,2.1
						c15.6,5,28.3,16.4,34.8,31.4c7.2,16.6,6.1,35.3-2.9,49.9L356.8,713.9z M329.2,649.9c-3.4,6.5-4.1,13.8-1.7,20.5
						c2.9,8.1,9.6,14.8,18,18.5c2-7.1,1.4-15.2-1.8-22.7C340.7,659.3,335.6,653.7,329.2,649.9z"/>
				</g>
			</g>
			<g>
				<g>
					<path fill="#899D3B" d="M166.5,517.3c3.6,12.6,13.2,21.9,25.1,26.1c7.4-9.7,10.3-22.2,6.8-34.4c-3.6-12.6-13.2-21.9-25.1-26.1
						C165.9,492.6,163,505.1,166.5,517.3z"/>
				</g>
				<g>
					<path fill="#531516" d="M195.5,556.1l-7.4-2.6c-15.6-5.4-27.6-17.9-32-33.3c-4.3-15-1.2-31,8.6-43.9l4.7-6.2l7.4,2.6
						c15.6,5.4,27.6,17.9,32,33.3c4.3,15.1,1.2,31.1-8.6,43.9L195.5,556.1z M177.6,497.1c-2.1,5.5-2.4,11.5-0.7,17.2
						c1.7,6,5.4,11.1,10.5,14.8c2.1-5.5,2.4-11.5,0.7-17.2C186.3,505.9,182.6,500.8,177.6,497.1z"/>
				</g>
			</g>
		</g>
		<g>
			<g>
				<g>
					<path fill="#899D3B" d="M621.9,591.7c-10.9,5.1-23.5,7.4-34.3-3.8c5.8-14,15.6-26.5,27.6-35.4c9.5-7,22.7-10.5,33.3-3.4
						C645.6,566,635.9,585.2,621.9,591.7z"/>
				</g>
				<g>
					<path fill="#531516" d="M605.5,606.7c-9.8,0-18.4-3.8-25.7-11.2l-4.9-5.1l2.7-6.5c6.5-15.7,17.5-29.9,31.2-39.9
						c14.6-10.8,32.7-12.4,45.7-3.7l5.8,3.9l-1.1,6.9c-3,17.7-13.3,41.6-32.7,50.5C618.8,605,612,606.7,605.5,606.7z M601.2,584.4
						c4.2,1.5,9.4,0.6,16.1-2.5c7.5-3.5,14.6-13.7,18.4-25.8c-0.1,0-0.2,0-0.3,0c-4.4,0-9.4,1.9-13.9,5.2
						C613.3,567.3,606.3,575.4,601.2,584.4z"/>
				</g>
			</g>
			<g>
				<g>
					<path fill="#899D3B" d="M566,561.4c2.1,12,9.7,22.6,21.5,26.6c9.4-11.7,13.8-27.5,10.2-42.2c-2.8-11.7-12.2-20.5-24.3-21.5
						C566.8,535.3,563.7,548.5,566,561.4z"/>
				</g>
				<g>
					<path fill="#531516" d="M591.2,600.6l-7.2-2.4c-15-5.1-25.8-18.1-28.7-34.9c-2.6-14.9,0.5-30.8,8.9-44.6l3.5-5.8l6.7,0.6
						c16.6,1.4,29.8,13.1,33.8,29.8c4.2,17.4-0.4,36.7-12.3,51.5L591.2,600.6z M579.1,537c-2.9,7.4-3.8,15.2-2.5,22.5
						c1,5.8,3.6,10.7,7.4,14.1c4-8.1,5.2-17.1,3.3-25.4C586.1,543.2,583.1,539.3,579.1,537z"/>
				</g>
			</g>
			<g>
				<g>
					<path fill="#899D3B" d="M584.8,649.2c-12.5,2.1-25.5,0.6-33.9-13.1c8.6-12.3,21.6-23.6,35.1-27.3c11.8-3.2,24.4-4.9,34.6,6
						C614.1,630.6,600,646.7,584.8,649.2z"/>
				</g>
				<g>
					<path fill="#531516" d="M576.3,660.8c-15,0-26.9-6.6-34.6-19l-3.7-6l4-5.8c11-15.7,26.3-27.5,41.1-31.5
						c4.8-1.3,11.2-2.8,17.9-2.8c10.9,0,20.2,4,27.5,11.9l4.7,5.1l-2.6,6.4c-7.4,17.9-23.8,37.5-44,40.9
						C583,660.5,579.5,660.8,576.3,660.8z M564.8,635.9c4.3,3.3,10.1,4,18.2,2.7c8.1-1.4,17.5-9.6,23.9-20.4
						c-5-1.9-12.7-0.4-18.1,1.1C580.9,621.4,572.1,627.6,564.8,635.9z"/>
				</g>
			</g>
			<g>
				<g>
					<path fill="#899D3B" d="M534.5,603.9c-0.2,12.8,5.5,25.2,16.4,32.3c11.9-9.2,19.5-23.8,18.8-38.9c-0.6-12.6-8.4-23.5-20.3-27.9
						C540.2,578.6,534.7,590.8,534.5,603.9z"/>
				</g>
				<g>
					<path fill="#531516" d="M551.5,649.3l-6.4-4.1c-13.6-8.8-21.6-24.3-21.4-41.5c0.2-15.6,6.6-30.5,18-42l4.9-4.9l6.5,2.4
						c15.9,5.8,26.6,20.5,27.4,37.5c0.8,18.3-7.8,36.2-23,47.9L551.5,649.3z M552,583.2c-4.2,6.3-6.6,13.5-6.7,20.9
						c-0.1,6.6,1.9,12.7,5.4,17.4c5.6-6.8,8.7-15.3,8.3-23.7C558.7,591.9,556.2,586.7,552,583.2z"/>
				</g>
			</g>
			<g>
				<g>
					<path fill="#899D3B" d="M535.7,696.8c-14.1,0.2-26.8-8.6-31.4-22.1c11.2-10.2,26.7-18.1,40.8-18.2c12.9-0.1,25.8,1.9,33.7,15.3
						C569,686,553.1,696.5,535.7,696.8z"/>
				</g>
				<g>
					<path fill="#531516" d="M535.2,707.6c-18.5,0-35-11.8-41-29.4l-2.3-6.7l5.2-4.8c14.3-13.1,32.3-20.9,48.1-21c0,0,0,0,0,0
						c14.7,0,32.3,2.4,43,20.7l3.5,6l-4,5.7c-12.7,18.1-32.1,29.1-51.7,29.5L535.2,707.6z M518,677.6c4.1,5.2,10.4,8.4,17.2,8.4
						v10.8l0.4-10.8c10.5-0.2,21.1-5.3,29.4-14.1c-4.2-3.3-10.1-4.6-19.2-4.6C537.1,667.4,526.9,671.2,518,677.6z"/>
				</g>
			</g>
			<g>
				<g>
					<path fill="#899D3B" d="M494.4,637.9c-2.8,13.2,0.5,27,9.9,36.8c13.9-6.2,24.6-19,26.8-34.1c1.9-13.1-3.9-25.9-14.9-33.3
						C505.1,614.1,497.1,625.1,494.4,637.9z"/>
				</g>
				<g>
					<path fill="#531516" d="M501.8,687.6l-5.2-5.5c-11.5-12-16.3-29.4-12.7-46.5c3.2-15.5,13-29.2,26.7-37.6l5.9-3.6l5.7,3.9
						c14.6,9.9,22.1,26.7,19.5,43.8c-2.7,18.3-15.4,34.5-33.1,42.4L501.8,687.6z M515.6,621.3c-5.4,5.1-9.1,11.6-10.6,18.8
						c-1.5,7.2-0.6,14.4,2.4,20.4c7-5.4,11.8-13.1,13.1-21.4C521.4,632.6,519.6,626.2,515.6,621.3z"/>
				</g>
			</g>
			<g>
				<g>
					<path fill="#899D3B" d="M476.4,732.3c-14.5-3.4-25.1-15.6-26.9-30.4c13.5-7.6,29.6-10.7,44.9-8.1c13.5,2.3,26.5,10.5,30.6,24.2
						C512,729.9,493.7,736.4,476.4,732.3z"/>
				</g>
				<g>
					<path fill="#531516" d="M487,744.3c-4.4,0-8.8-0.5-13.1-1.5c-18.7-4.4-32.8-20.3-35.1-39.6l-0.9-7.1l6.3-3.5
						c15.7-8.9,34.5-12.3,52-9.3c19.2,3.2,34.2,15.4,39.2,31.7l2,6.5l-5.1,4.6C519.4,737.7,502.9,744.3,487,744.3z M462.2,707.8
						c3.1,6.9,9.2,12.2,16.7,14c10.5,2.5,22.5-0.2,32.6-6.8c-4.6-6-12.2-9.3-18.9-10.5C482.6,702.8,471.8,704,462.2,707.8z"/>
				</g>
			</g>
			<g>
				<g>
					<path fill="#899D3B" d="M447.3,662c-5.5,12.8-5.3,27.9,2.2,40c15.3-2.8,28.8-13.2,34.1-27.8c4.7-13,1.2-27.4-8.1-37.5
						C462.8,640.6,452.6,649.8,447.3,662z"/>
				</g>
				<g>
					<path fill="#531516" d="M444.2,713.9l-3.9-6.3c-9-14.6-10.1-33.2-2.9-49.9c6.5-15,19.1-26.5,34.7-31.4l6.6-2.1l4.7,5.1
						c12.3,13.5,16.3,32,10.3,48.5c-6.5,17.9-22.7,31.2-42.3,34.8L444.2,713.9z M471.8,649.9c-6.4,3.7-11.5,9.4-14.5,16.3
						c-3.2,7.5-3.8,15.5-1.8,22.7c8.3-3.7,15-10.4,18-18.5C475.9,663.8,475.2,656.4,471.8,649.9z"/>
				</g>
			</g>
			<g>
				<g>
					<path fill="#899D3B" d="M634.5,517.3c-3.6,12.6-13.2,21.9-25.1,26.1c-7.4-9.7-10.3-22.2-6.8-34.4c3.6-12.6,13.2-21.9,25.1-26.1
						C635.1,492.6,638,505.1,634.5,517.3z"/>
				</g>
				<g>
					<path fill="#531516" d="M605.5,556.1l-4.7-6.2c-9.7-12.8-12.9-28.8-8.6-43.9c4.4-15.4,16.4-27.9,32-33.3l7.4-2.6l4.7,6.2
						c9.7,12.9,12.9,28.9,8.6,43.9c-4.4,15.4-16.3,27.9-32,33.3L605.5,556.1z M623.4,497.1c-5.1,3.6-8.7,8.8-10.5,14.8
						c-1.6,5.7-1.3,11.7,0.7,17.2c5.1-3.6,8.7-8.8,10.5-14.8C625.8,508.6,625.5,502.7,623.4,497.1z"/>
				</g>
			</g>
		</g>
	</g>
	<g>
		<g>
			<g>
				<path fill="#C0ACA3" d="M659.4,251.8c-0.1,0.6-0.4,1.1-0.4,1.7c0,6-0.8,12-1.7,18c-1,6-1.9,12-3.2,17.9
					c-1.4,6.4-3.1,12.8-5,19.1c-1.8,6-3.6,12-5.8,17.9c-2.7,7.1-5.5,14.2-8.6,21.2c-3,6.7-6.1,13.4-9.5,19.9
					c-3.7,7.2-7.6,14.4-11.8,21.3c-5.2,8.7-10.6,17.3-16.3,25.7c-6.1,9-12.6,17.8-19.2,26.5c-6,7.9-12.3,15.5-18.6,23.1
					c-12.3,14.7-25.6,28.7-39.1,42.4c-9.2,9.3-18.7,18.3-28.5,27c-7.6,6.8-15.3,13.6-23.2,20.1c-16.6,13.9-33.8,27.1-52.2,38.7
					c-4.8,3-9.7,5.8-14.9,8c-1.4-0.1-2.7-0.1-4.1-0.2l-0.5-0.3c-7.5-3.9-14.8-8.1-21.8-12.9c-22-15-42.7-31.7-62.6-49.3
					c-15.4-13.7-30.2-27.9-44.4-42.8c-9.7-10.2-19.2-20.6-28.3-31.4c-8.6-10.1-16.8-20.5-24.6-31.2c-6.3-8.5-12.3-17.2-18.1-26.1
					c-6.9-10.5-13.4-21.3-19.3-32.5c-4.2-8-8.3-16.1-12-24.3c-3.6-8-6.9-16.2-9.9-24.4c-2.3-6.3-4.1-12.8-6.1-19.2
					c-2.1-6.9-3.7-13.9-5.1-20.9c-1.6-7.7-2.7-15.4-3.5-23.2c-0.3-2.6-0.3-5.2-0.6-7.8c-0.2-1.6-0.5-3.2-0.8-4.8V148.7
					c0-21.2,17.2-38.4,38.4-38.4H621c21.2,0,38.4,17.2,38.4,38.4V251.8z"/>
			</g>
		</g>
		<g>
			<g>
				<path fill="#867063" d="M630.7,268.5c-0.1,0.5-0.3,1.1-0.3,1.6c0,5.9-0.7,11.7-1.5,17.5c-0.9,5.9-1.7,11.7-2.8,17.5
					c-1.3,6.3-2.8,12.5-4.5,18.7c-1.6,5.9-3.3,11.7-5.2,17.4c-2.4,7-5,13.9-7.7,20.7c-2.7,6.6-5.5,13.1-8.5,19.4
					c-3.3,7-6.8,14-10.6,20.8c-4.7,8.5-9.5,16.9-14.6,25.1c-5.5,8.8-11.3,17.4-17.2,25.9c-5.4,7.7-11,15.1-16.7,22.6
					c-11.1,14.4-22.9,28.1-35,41.4c-8.2,9.1-16.8,17.8-25.6,26.4c-6.9,6.7-13.7,13.3-20.8,19.7c-14.9,13.6-30.3,26.5-46.8,37.8
					c-4.3,2.9-8.7,5.7-13.4,7.8c-1.3-0.1-2.4-0.1-3.7-0.2l-0.4-0.3c-6.7-3.8-13.3-7.9-19.6-12.6c-19.7-14.7-38.2-31-56.1-48.2
					c-13.8-13.3-27.1-27.3-39.8-41.8c-8.7-10-17.2-20.1-25.4-30.7c-7.7-9.9-15-20-22.1-30.4c-5.6-8.3-11.1-16.8-16.3-25.5
					c-6.2-10.3-12-20.8-17.3-31.7c-3.8-7.8-7.4-15.7-10.7-23.8c-3.2-7.8-6.1-15.8-8.9-23.8c-2.1-6.1-3.6-12.5-5.4-18.8
					c-1.9-6.7-3.3-13.5-4.6-20.4c-1.4-7.5-2.4-15.1-3.1-22.7c-0.2-2.5-0.3-5.1-0.5-7.6c-0.1-1.6-0.5-3.1-0.7-4.7v-98.1
					c0-20.7,15.4-37.5,34.4-37.5h396.9c19,0,34.4,16.8,34.4,37.5V268.5z"/>
			</g>
		</g>
		<g>
			<g>
				<path fill="#B99A0F" d="M602.3,257.7c-0.1,0.4-0.3,0.8-0.3,1.2c0,4.4-0.6,8.8-1.4,13.1c-0.8,4.4-1.5,8.8-2.6,13.1
					c-1.1,4.7-2.5,9.3-4,13.9c-1.4,4.4-2.9,8.7-4.7,13c-2.1,5.2-4.5,10.3-6.9,15.4c-2.4,4.9-4.9,9.8-7.7,14.5
					c-3,5.3-6.1,10.5-9.5,15.6c-4.2,6.3-8.5,12.6-13.1,18.7c-5,6.6-10.1,13-15.5,19.3c-4.8,5.7-9.9,11.3-15,16.8
					c-10.1,10.9-20.9,21.2-32,31.3c-6.8,6.2-13.8,12.2-21,18c-6.7,5.4-13.4,10.7-20.2,15.9c-13.4,10.1-27.3,19.8-42.1,28.2
					c-3.8,2.2-7.8,4.2-12,5.8c-0.9,0-1.9,0-2.8,0c-1.4-0.6-2.8-1.2-4.2-1.8c-7.5-3.6-14.5-7.9-21.4-12.3
					c-15.1-9.8-29.5-20.4-43.4-31.5c-12.4-10-24.4-20.4-35.8-31.2c-7.9-7.4-15.5-15-22.9-22.9c-6.9-7.4-13.5-15-19.9-22.7
					c-5.1-6.2-10-12.6-14.6-19c-5.6-7.7-10.8-15.5-15.5-23.7c-3.4-5.8-6.7-11.7-9.6-17.7c-2.9-5.8-5.5-11.8-8-17.8
					c-1.9-4.6-3.3-9.3-4.9-14c-1.7-5-3-10.1-4.1-15.2c-1.3-5.6-2.2-11.2-2.8-16.9c-0.2-1.9-0.2-3.8-0.5-5.7
					c-0.1-1.2-0.4-2.3-0.6-3.5v-79.3c0-12.1,10.4-21.9,23.2-21.9h372.7c12.8,0,23.2,9.8,23.2,21.9V257.7z"/>
			</g>
		</g>
		<g>
			<g>
				<path fill="#531516" d="M404.8,617.6l-10.3-0.5l-3.3-1.7c-9-4.7-16.7-9.3-23.5-13.9c-21-14.3-42.2-31-64.8-51.1
					c-15.8-14-31.2-28.9-45.8-44.2c-10.8-11.3-20.4-21.9-29.3-32.5c-8.8-10.4-17.4-21.2-25.5-32.3c-6.5-8.8-12.8-17.9-18.8-27.1
					c-7.8-12-14.4-23.1-20.2-34.1c-4.9-9.3-9-17.6-12.5-25.4c-3.5-7.8-6.9-16.2-10.4-25.6c-1.8-4.8-3.2-9.6-4.6-14.2
					c-0.6-2-1.2-3.9-1.8-5.9c-2.4-7.7-4.1-15.4-5.5-22.6c-1.6-7.9-2.8-16-3.8-24.9c-0.2-1.6-0.3-3.1-0.3-4.7
					c-0.1-1.1-0.1-2.2-0.2-3.2c-0.1-0.7-0.2-1.4-0.4-2.1l-0.5-4.1V145.7c0-29.2,23.7-52.9,52.9-52.9h448.8
					c29.2,0,52.9,23.7,52.9,52.9v106.1l-0.4,1.7c-0.1,6.7-1,13-1.9,18.9l-0.4,2.7c-0.8,5.3-1.7,10.7-2.9,16.2
					c-1.4,6.1-3,12.6-5.3,20.3c-2.2,7.4-4.1,13.5-6.2,19.1c-2.7,7.4-5.8,14.8-9,22.2c-3.2,7.3-6.6,14.3-10,21
					c-4.5,8.7-8.5,15.9-12.4,22.4c-6.2,10.4-11.6,18.9-16.9,26.7c-6,8.8-12.5,17.8-19.9,27.5c-6.4,8.4-13,16.4-19.3,23.9
					c-11.2,13.4-23.6,26.9-40.4,43.8c-9.1,9.2-18.7,18.3-29.5,28c-7.4,6.6-15.5,13.7-23.8,20.7c-20,16.7-37.3,29.5-54.4,40.3
					c-6.3,4-11.8,6.9-17.2,9.2L404.8,617.6z M151.1,246.2l0,0.1c0.3,1.5,0.6,3.1,0.7,4.6c0.1,1.5,0.2,2.9,0.3,4.4
					c0.1,1.1,0.1,2.3,0.2,3.4c0.8,7.9,1.9,15.2,3.4,22.2c1.3,6.4,2.8,13.2,4.8,19.8c0.6,2.1,1.3,4.2,1.9,6.3c1.3,4.4,2.6,8.6,4,12.5
					c3.3,8.8,6.4,16.6,9.7,23.9c3.3,7.3,7.1,15.1,11.7,23.9c5.4,10.2,11.5,20.6,18.9,31.8c5.7,8.8,11.8,17.4,17.9,25.8
					c7.8,10.6,16,21,24.4,30.9c8.5,10.1,17.8,20.3,28.1,31.2c14.1,14.8,29,29.1,44.2,42.6c21.7,19.3,42,35.3,62,48.9
					c5,3.4,10.7,6.9,17.3,10.4c2.9-1.4,5.9-3.1,9.3-5.3c16-10.1,32.4-22.2,51.4-38.1c8.1-6.7,15.9-13.6,23.2-20.1
					c10.4-9.2,19.6-18,28.3-26.7c16.2-16.4,28.2-29.4,38.8-42.1c6-7.2,12.4-15,18.5-22.9c7.1-9.3,13.3-17.9,19-26.3
					c5-7.4,10.1-15.4,16.1-25.3c3.6-6,7.3-12.7,11.5-20.9c3.2-6.2,6.3-12.7,9.3-19.4c3-6.9,5.8-13.8,8.4-20.7
					c1.8-5,3.6-10.4,5.6-17.1c2.1-7.1,3.6-13,4.8-18.5c1-4.7,1.8-9.5,2.6-14.6l0.4-2.8c0.8-5.1,1.6-10.6,1.6-15.9
					c0-1.4,0.2-2.6,0.4-3.6V145.7c0-13.8-11.2-25-25-25H176.1c-13.8,0-25,11.2-25,25V246.2z"/>
			</g>
		</g>
		<g>
			<g>
				<path fill="#F7CD4E" d="M610.4,294.2c-0.1,0.4-0.3,0.8-0.3,1.2c0,4.4-0.6,8.8-1.4,13.1c-0.8,4.4-1.5,8.8-2.6,13.1
					c-1.1,4.7-2.5,9.3-4,13.9c-1.4,4.4-2.9,8.7-4.7,13c-2.1,5.2-4.5,10.3-6.9,15.4c-2.4,4.9-4.9,9.8-7.7,14.5
					c-3,5.3-6.1,10.5-9.5,15.6c-4.2,6.3-8.5,12.6-13.1,18.7c-5,6.6-10.1,13-15.5,19.3c-4.8,5.7-9.9,11.3-15,16.8
					c-10.1,10.9-20.9,21.2-32,31.3c-6.8,6.2-13.8,12.2-21,18c-6.7,5.4-13.4,10.7-20.2,15.9c-13.4,10.1-27.3,19.8-42.1,28.2
					c-3.8,2.2-7.8,4.2-12,5.8c-0.9,0-1.9,0-2.8,0c-1.4-0.6-2.8-1.2-4.2-1.8c-7.5-3.6-14.5-7.9-21.4-12.3
					c-15.1-9.8-29.5-20.4-43.4-31.5c-12.4-10-24.4-20.4-35.8-31.2c-7.9-7.4-15.5-15-22.9-22.9c-6.9-7.4-13.5-15-19.9-22.7
					c-5.1-6.2-10-12.6-14.6-19c-5.6-7.7-10.8-15.5-15.5-23.7c-3.4-5.8-6.7-11.7-9.6-17.7c-2.9-5.8-5.5-11.8-8-17.8
					c-1.9-4.6-3.3-9.3-4.9-14c-1.7-5-3-10.1-4.1-15.2c-1.3-5.6-2.2-11.2-2.8-16.9c-0.2-1.9-0.2-3.8-0.5-5.7
					c-0.1-1.2-0.4-2.3-0.6-3.5v-79.3c0-12.1,10.4-21.9,23.2-21.9h372.7c12.8,0,23.2,9.8,23.2,21.9V294.2z"/>
			</g>
		</g>
		<g>
			<g>
				<polygon fill="#EF4136" points="310,464.2 365.5,529.4 430.9,531 495.2,464.2 				"/>
			</g>
			<g>
				<path fill="#293D44" d="M432.2,534.1l-68.2-1.6l-60.8-71.4h199.2L432.2,534.1z M367,526.4l62.6,1.5l58.2-60.5H316.7L367,526.4z"
					/>
			</g>
		</g>
		<g>
			<g>
				<ellipse fill="#F6E5A8" cx="401.9" cy="369.6" rx="96.5" ry="91.3"/>
			</g>
		</g>
		<g>
			<g>
				<polygon fill="#379DC1" points="236,382.7 307.2,456.1 498,456.1 565,382.7 				"/>
			</g>
		</g>
		<g>
			<g>
				<path fill="#531516" d="M404.9,555.4H396l-4.1-1.9c-1.2-0.5-2.3-1.1-3.4-1.7c-8.4-4.3-16-9.5-23-14.4
					c-14.5-10.2-29.1-21.8-44.6-35.4c-12.6-11-25-22.8-36.7-34.9c-8.6-8.9-16.3-17.3-23.4-25.6c-7-8.2-13.9-16.8-20.5-25.5
					c-5.2-7-10.3-14.2-15.1-21.4c-6.3-9.5-11.6-18.3-16.2-27c-3.9-7.3-7.2-13.9-10-20.2c-2.8-6.2-5.6-12.9-8.4-20.3
					c-1.4-3.7-2.6-7.6-3.7-11.4l-1.4-4.6c-2-6.2-3.3-12.4-4.5-18.1c-1.3-6.3-2.3-12.8-3-19.8c-0.1-1.3-0.2-2.6-0.3-3.9
					c0-0.8-0.1-1.6-0.2-2.4c0-0.5-0.2-0.9-0.2-1.3l-0.5-3.9v-86.5c0-21,16.8-38.1,37.4-38.1h372.7c20.6,0,37.4,17.1,37.4,38.1
					l-0.3,91.7c-0.1,5.3-0.8,10.3-1.6,14.9l-0.4,2.2c-0.7,4.3-1.4,8.6-2.4,12.8c-1.1,4.9-2.5,10.1-4.3,16.2
					c-1.7,5.9-3.3,10.7-5,15.2c-2.2,5.9-4.7,11.8-7.2,17.6c-2.6,5.8-5.3,11.4-8.1,16.7c-3.6,6.9-6.8,12.6-10,17.8
					c-5,8.2-9.3,14.9-13.6,21.1c-4.9,7-10.1,14.1-15.9,21.7c-5.1,6.7-10.5,13-15.4,18.9c-9,10.7-19.1,21.5-32.8,35.1
					c-6.8,6.8-14.1,13.6-21.7,20.3c-6.5,5.7-13.4,11.7-20.6,17.7c-16,13.2-29.9,23.3-43.7,31.9c-5.1,3.2-9.5,5.5-14,7.4L404.9,555.4
					z M205.1,260.4c0.2,1.2,0.5,2.5,0.6,3.7c0.1,1.2,0.2,2.4,0.3,3.6c0,0.8,0.1,1.7,0.2,2.5c0.7,6.1,1.5,11.7,2.6,17.1
					c1,4.9,2.2,10.2,3.8,15.2c0.5,1.6,1,3.3,1.5,4.9c1,3.2,2,6.5,3.1,9.7c2.6,6.8,5,12.9,7.6,18.5c2.6,5.7,5.6,11.8,9.2,18.6
					c4.2,7.9,9,15.9,14.8,24.7c4.5,6.8,9.3,13.6,14.2,20.1c6.2,8.2,12.7,16.3,19.3,24.1c6.8,7.9,14.1,15.9,22.3,24.3
					c11.2,11.5,23,22.7,35,33.3c14.8,12.9,28.6,23.9,42.2,33.5c5.9,4.2,12.3,8.5,18.9,12c1.8-0.9,3.7-2,5.8-3.3
					c12.6-7.9,25.5-17.3,40.6-29.7c6.9-5.7,13.6-11.5,19.9-17.1c7.1-6.3,14-12.7,20.4-19.1c13.1-13,22.7-23.3,31.2-33.3
					c4.8-5.6,9.8-11.7,14.6-17.9c5.5-7.2,10.5-13.9,15-20.5c3.9-5.7,8-12,12.7-19.7c2.8-4.7,5.7-9.8,9.1-16.2
					c2.5-4.7,4.9-9.8,7.3-15c2.4-5.3,4.6-10.7,6.6-16.1c1.4-3.8,2.8-8,4.4-13.2c1.6-5.5,2.8-10,3.8-14.3c0.8-3.7,1.4-7.4,2-11.2
					l0.4-2.3c0.6-3.9,1.2-8,1.2-11.9c0-1.2,0.1-2.3,0.3-3.2v-86.9c0-5.3-4-9.7-9-9.7H214.1c-4.9,0-9,4.3-9,9.7V260.4z"/>
			</g>
		</g>
		<g>
			<g>
				<path fill="#531516" d="M444.9,97.3"/>
			</g>
		</g>
		<g>
			<g>
				<g>
					<path fill="#531516" d="M295.8,279l44.2,28.6c2,1.3,3.6,3.2,5,5.8s2.1,5.4,2.1,8.5c0,2.9-0.3,5.7-1,8.4
						c-0.6,2.7-1.6,4.9-2.8,6.6c-1.2,1.7-2.7,2.6-4.3,2.6c-2,0-4-0.6-5.9-1.7L270.5,295c-5-3.2-7.6-8.4-7.6-15.3
						c0-3.6,0.6-6.8,1.7-9.6c1.1-2.8,2.7-4.9,4.6-6.2l63.9-43.7c2.1-1.1,4.1-1.6,5.9-1.6c2.4,0,4.4,1.8,5.8,5.4
						c1.5,3.6,2.2,7.7,2.2,12.3c0,3-0.7,5.9-2.1,8.5c-1.4,2.6-3.1,4.5-5,5.7L295.8,279z"/>
				</g>
			</g>
			<g>
				<g>
					<path fill="#531516" d="M504.6,283L460,254.5c-2-1.3-3.7-3.2-5.1-5.8c-1.4-2.6-2.1-5.4-2.1-8.5c0-2.9,0.3-5.7,1-8.4
						c0.6-2.7,1.6-4.9,2.8-6.6c1.2-1.7,2.7-2.6,4.3-2.6c2,0,4,0.6,5.9,1.7l63.3,42.8c5.1,3.3,7.6,8.4,7.6,15.3
						c0,3.6-0.6,6.8-1.7,9.6c-1.1,2.8-2.7,4.9-4.7,6.2l-64.5,43.7c-2.1,1.1-4.1,1.6-5.9,1.6c-2.5,0-4.4-1.8-5.9-5.4
						c-1.5-3.6-2.2-7.7-2.2-12.3c0-3,0.7-5.9,2.1-8.5c1.4-2.6,3.1-4.5,5-5.7L504.6,283z"/>
				</g>
			</g>
			<g>
				<g>
					<path fill="#531516" d="M429.6,219l-41.4,126.6c-1.4,5.5-4.9,9-10.6,10.4c-3.9,1-7.8,1.3-11.6,1.1c-3.8-0.3-6.2-1.3-7.3-2.9
						c-0.6-1.4-0.5-3.8,0.5-7.2l41.4-126.7c0.9-4.1,4.2-6.9,9.9-8.3c4-1,7.8-1.3,11.6-1c3.7,0.3,6.1,1.3,7.1,3.1
						C429.9,215.9,430.1,217.5,429.6,219z"/>
				</g>
			</g>
		</g>
		<g>
			<g>
				<path d="M400.8,151.3"/>
			</g>
		</g>
		<g>
			<g>
				<path fill="none" stroke="#531516" stroke-width="3.3336" stroke-linecap="round" stroke-miterlimit="10" d="M240.1,155.4"/>
			</g>
		</g>
		<g>
			<g>
				<path fill="#531516" d="M560.7,390.1H235.9c-6.4,0-11.5-5.2-11.5-11.5c0-6.4,5.2-11.5,11.5-11.5h324.7c6.4,0,11.5,5.2,11.5,11.5
					C572.2,384.9,567,390.1,560.7,390.1z"/>
			</g>
		</g>
		<g>
			<g>
				<path fill="#531516" d="M500.2,466.9H294.2c-8,0-14.5-6.5-14.5-14.5s6.5-14.5,14.5-14.5h205.9c8,0,14.5,6.5,14.5,14.5
					S508.2,466.9,500.2,466.9z"/>
			</g>
		</g>
		<g>
			<g>
				<path fill="#531516" d="M427,534.9h-61.8c-6.4,0-11.5-5.2-11.5-11.5c0-6.4,5.2-11.5,11.5-11.5H427c6.4,0,11.5,5.2,11.5,11.5
					C438.5,529.8,433.3,534.9,427,534.9z"/>
			</g>
		</g>
		<g>
			<g>
				<path fill="#531516" d="M392.8,435.4h-21.1c-5.8,0-10.5-4.7-10.5-10.5c0-5.8,4.7-10.5,10.5-10.5h21.1c5.8,0,10.5,4.7,10.5,10.5
					C403.3,430.7,398.6,435.4,392.8,435.4z"/>
			</g>
		</g>
		<g>
			<g>
				<path fill="#531516" d="M463.7,413.8h-30.9c-5.8,0-10.5-4.7-10.5-10.5s4.7-10.5,10.5-10.5h30.9c5.8,0,10.5,4.7,10.5,10.5
					S469.5,413.8,463.7,413.8z"/>
			</g>
		</g>
		<g>
			<g>
				<path fill="#531516" d="M539.1,418.5h-30.9c-5.8,0-10.5-4.7-10.5-10.5s4.7-10.5,10.5-10.5h30.9c5.8,0,10.5,4.7,10.5,10.5
					S544.9,418.5,539.1,418.5z"/>
			</g>
		</g>
		<g>
			<g>
				<path fill="#531516" d="M325.1,421.7h-61.8c-5.8,0-10.5-4.7-10.5-10.5c0-5.8,4.7-10.5,10.5-10.5h61.8c5.8,0,10.5,4.7,10.5,10.5
					C335.7,417,330.9,421.7,325.1,421.7z"/>
			</g>
		</g>
		<g>
			<g>
				<path fill="#531516" d="M456.6,505.6h-119c-6.4,0-11.5-5.2-11.5-11.5c0-6.4,5.2-11.5,11.5-11.5h119c6.4,0,11.5,5.2,11.5,11.5
					C468.1,500.4,462.9,505.6,456.6,505.6z"/>
			</g>
		</g>
	</g>
</g>
</svg>
